<svg 
    width="223" 
    height="78" 
    viewBox="0 0 223 78" 
    fill="none" 
    xmlns="http://www.w3.org/2000/svg">
    <path d="M32.9974 0.116103C32.7898 0.185591 32.5632 0.299298 32.5003 0.362469C32.3933 0.482494 32.3933 0.507762 32.5066 0.912057C32.6576 1.46796 32.5884 1.77118 32.085 2.83245L31.7012 3.65368L32.236 4.36751C32.8149 5.14451 33.1673 5.6941 33.5008 6.36371C33.8343 7.02069 34.0671 7.02069 34.1615 6.36371C34.2307 5.8773 34.3566 5.66883 35.0362 4.96763L35.6339 4.34856L35.162 3.83056C34.4698 3.05987 34.4635 3.04724 34.6712 2.23865L34.797 1.74591L34.6397 1.38584C34.5328 1.12052 34.495 0.949959 34.5265 0.792032C34.5831 0.413006 34.5076 0.248762 34.2118 0.116103C33.8784 -0.0418248 33.4882 -0.0355077 32.9974 0.116103Z" fill="white"/>
    <path d="M27.1204 0.589972C26.0947 0.754217 25.3082 1.05744 23.949 1.80917L23.0806 2.29559L23.1184 2.57986C23.3764 4.43077 23.3701 5.03089 23.0806 5.34043C22.9485 5.48572 22.9107 5.49204 22.4766 5.44782C22.1179 5.41623 21.9606 5.42887 21.7404 5.51731C21.4069 5.64365 21.1426 5.93424 21.1426 6.17429C21.1426 6.6228 19.4625 7.75356 18.4683 7.98098C17.9271 8.101 16.8323 8.63795 16.5806 8.89696C16.417 9.06752 16.3918 9.14964 16.3729 9.53498C16.354 9.79398 16.3792 10.0467 16.4233 10.1604C16.5302 10.4131 17.3042 11.1458 18.2166 11.847C18.6319 12.1692 20.4001 13.5084 22.1494 14.8224C25.4655 17.3113 26.9945 18.4926 27.3784 18.8527C27.6489 19.118 28.1712 19.2254 28.8508 19.1686C29.7129 19.0928 30.3673 18.6758 33.7903 16.0416C35.3635 14.8287 35.741 14.5192 35.741 14.4244C35.741 14.3297 35.4453 14.0896 34.8412 13.7043C33.8029 13.0347 33.3184 11.9797 33.6582 11.1206C33.8281 10.691 33.8281 10.0593 33.6708 8.83378C33.6016 8.32842 33.5512 7.71566 33.5575 7.47561C33.5701 7.065 33.5512 6.98919 33.2744 6.42065C32.922 5.68787 32.6766 5.29621 31.9907 4.3676L31.4684 3.6664L31.9089 2.71252C32.1795 2.12503 32.362 1.64493 32.3871 1.4491C32.4186 1.15851 32.406 1.12061 32.2361 0.950047C32.0285 0.735266 31.7076 0.653143 30.7385 0.558386C29.845 0.469948 27.7559 0.488899 27.1204 0.589972Z" fill="white"/>
    <path d="M19.3996 1.70794C19.3304 1.79006 19.1794 1.99221 19.0661 2.16909C18.72 2.68077 18.1411 3.25563 17.3986 3.81153C16.0583 4.82227 15.5675 5.55505 15.4102 6.80584C15.3473 7.29857 15.3032 7.44386 15.1019 7.74709C14.7055 8.36616 13.9 9.02314 12.3961 9.95807L12.1759 10.097H13.8434C14.8061 10.097 15.6116 10.0655 15.7437 10.0339C16.0143 9.95807 16.0772 9.86963 16.1401 9.46534C16.1653 9.30741 16.2408 9.09263 16.31 8.97892C16.5554 8.56831 17.5874 7.96818 18.4117 7.75972C19.0095 7.60811 19.3304 7.46282 19.8841 7.10274C20.5385 6.6795 20.8909 6.33205 20.8909 6.11096C20.8909 5.88354 21.2055 5.55505 21.6208 5.3529C21.8348 5.25183 22.0865 5.19498 22.4514 5.16971C23.0366 5.13181 23.0933 5.0939 23.087 4.69593C23.087 4.08948 22.9737 2.8387 22.9108 2.72499C22.8227 2.56075 22.615 2.47862 21.9292 2.3586C21.1867 2.22594 20.4882 1.99221 20.1358 1.75848C19.796 1.53106 19.5758 1.51842 19.3996 1.70794Z" fill="white"/>
    <path d="M35.7535 4.58226C35.5207 4.69597 34.709 5.54246 34.5642 5.82041C34.5139 5.92149 34.4258 6.15522 34.3755 6.3321C34.3251 6.50898 34.1804 6.8501 34.0546 7.08383C33.8532 7.47549 33.828 7.56393 33.8343 7.97454C33.8406 8.22091 33.891 8.74523 33.9413 9.13689C34.0797 10.1287 34.0734 10.7098 33.9161 11.0762C33.6581 11.6827 33.8217 12.4281 34.3377 13.0093C34.5013 13.1862 34.9481 13.5399 35.3382 13.7989C35.722 14.0516 36.0555 14.3043 36.0807 14.3611C36.1688 14.6012 37.4839 15.0244 38.453 15.1192C38.7927 15.1571 38.9186 15.1445 39.1137 15.0497C39.8939 14.6707 41.272 15.2139 44.758 17.2607C47.2183 18.701 47.4448 18.8021 47.4952 18.4546C47.5077 18.3535 47.577 18.2967 47.7154 18.2588C47.8412 18.2272 47.9482 18.1451 48.0048 18.0314C48.1433 17.7408 48.1936 15.7698 48.1936 10.6656L48.1999 5.89622L47.1742 5.4098C45.9535 4.83495 45.4375 4.66439 44.8838 4.66439C44.091 4.66439 43.7638 5.01814 43.7763 5.85832C43.7889 6.50266 43.5813 6.87537 42.9772 7.27335C42.757 7.42496 42.6122 7.406 42.09 7.16596C41.832 7.04593 41.4104 6.888 41.1524 6.8122C39.6233 6.37 39.8184 6.48371 38.9941 5.52983C38.6166 5.08763 38.2894 4.9297 37.2196 4.6707C36.2947 4.4496 36.0493 4.43697 35.7535 4.58226Z" fill="white"/>
    <path d="M48.5523 6.28788C48.5271 6.42054 48.4957 8.67574 48.4705 11.3037L48.439 16.0857L49.7479 16.092C50.4715 16.0983 52.4284 16.1299 54.1022 16.1678L57.1415 16.2373L57.4435 16.0478C57.6134 15.9467 58.0035 15.6561 58.3181 15.4034L58.8907 14.9423L58.7649 14.6201C58.5635 14.1021 57.4561 11.9922 56.7639 10.792C55.9836 9.45274 55.5746 8.6252 55.518 8.30935C55.4865 8.10088 55.4991 8.07561 55.6124 8.07561C55.6816 8.07561 55.9018 8.20827 56.0969 8.3662C56.292 8.52413 56.4619 8.64415 56.4807 8.6252C56.4933 8.61257 56.4304 8.25249 56.336 7.82925C56.141 6.91959 56.0717 6.84378 55.3104 6.62268C54.6119 6.42685 53.8757 6.39527 53.1395 6.52793C52.3907 6.66058 51.988 6.63532 50.3079 6.33841C49.6535 6.2247 48.9928 6.111 48.8543 6.08573L48.59 6.04783L48.5523 6.28788Z" fill="white"/>
    <path d="M11.2949 11.3163C10.9551 11.8406 10.4391 12.6871 10.156 13.1925C9.87279 13.6978 9.35682 14.5443 9.01073 15.075C8.30598 16.1489 8.17384 16.4331 8.31857 16.5847C8.46329 16.7237 9.11141 16.7932 10.4014 16.7932H11.578V16.2878C11.578 15.5803 11.6661 15.3971 12.1632 15.0876C12.3835 14.9486 12.6037 14.7528 12.6478 14.658C12.7107 14.538 12.7421 14.0958 12.761 13.1482L12.7862 11.8027L14.4285 11.7901L16.0771 11.7711L16.096 11.0573L16.1149 10.3498H14.0195H11.9241L11.2949 11.3163Z" fill="white"/>
    <path d="M16.3917 11.2657C16.3162 11.9796 16.3792 11.9543 14.5795 11.9796L13.0442 11.9985L13.0064 13.2493C12.9624 14.7654 12.9372 14.8475 12.4212 15.1571C11.9178 15.454 11.8297 15.6435 11.8297 16.4268V17.0332L9.97348 17.0585C8.85342 17.0712 8.09833 17.1027 8.06687 17.1406C8.02282 17.1785 8.09204 17.406 8.24935 17.766C8.58285 18.5114 8.73387 19.0863 8.82196 19.9202C8.88489 20.5266 8.87859 20.6782 8.78421 21.1204C8.72128 21.3984 8.65836 21.7079 8.63948 21.809L8.60173 21.9859L8.87859 21.9416C9.94831 21.7521 10.8796 22.2891 11.7102 23.5651C11.8864 23.8368 12.0689 24.0579 12.1192 24.0579C12.1632 24.0579 12.2639 23.9378 12.3457 23.7862C12.4401 23.6157 12.5785 23.4767 12.7421 23.3946C12.9813 23.2745 13.1449 23.2682 15.6241 23.2493L18.248 23.2303V18.7325C18.248 16.2562 18.2732 13.9947 18.3109 13.7041C18.3739 13.1672 18.4808 12.9398 18.6822 12.9398C18.8835 12.9398 18.9591 12.8387 18.8835 12.6934C18.8143 12.5671 16.5868 10.8551 16.4861 10.8551C16.461 10.8551 16.4169 11.0383 16.3917 11.2657Z" fill="white"/>
    <path d="M18.4997 13.2367C18.4997 13.2683 18.4934 15.574 18.4808 18.3725L18.4682 23.4578L15.794 23.4893C12.8428 23.5272 12.7547 23.5336 12.5597 23.9252C12.3835 24.2663 12.4338 24.5443 12.7862 25.2518C13.0756 25.8267 13.1197 25.9656 13.1197 26.2878C13.1197 26.5784 13.1449 26.6795 13.2392 26.7426C13.4532 26.9006 13.8874 26.9258 14.4348 26.8058C15.0011 26.6921 15.3724 26.7363 15.5548 26.9448C15.7122 27.128 15.8946 27.5386 15.9827 27.9113C16.0897 28.3535 16.1589 28.4609 16.3854 28.543C16.5931 28.6125 17.5055 28.6251 17.9586 28.5683L18.2543 28.5241L19.0723 27.3049C19.5191 26.6416 20.0476 25.9277 20.249 25.7193C20.6832 25.2771 21.1929 24.9991 21.8724 24.8223C22.5331 24.6517 22.7911 24.5443 23.2505 24.2284C23.8294 23.8368 24.1881 23.6978 25.1067 23.5209C25.5724 23.4325 26.252 23.2998 26.6106 23.2303C26.9756 23.1609 27.4224 23.0408 27.6111 22.965C28.1019 22.7692 28.1397 22.6429 28.1712 21.0573C28.2026 19.5727 28.1837 19.5096 27.7433 19.4148C27.4286 19.3453 27.2462 19.2253 27.2462 19.099C27.2462 18.701 21.4005 14.3927 19.5191 13.4009C19.2233 13.2493 19.0409 13.1925 18.808 13.1925C18.6381 13.1925 18.4997 13.2114 18.4997 13.2367Z" fill="white"/>
    <path d="M34.6649 15.6372C31.0216 18.4104 29.6751 19.3137 29.0018 19.4148C28.8445 19.4401 28.6746 19.478 28.6305 19.5096C28.5173 19.5791 28.448 20.0592 28.4417 20.8993C28.4355 21.8722 28.3474 22.4407 28.1397 22.8576C27.888 23.363 27.781 23.4199 26.9001 23.4893C25.8304 23.5778 25.0438 23.6852 24.811 23.7799C24.5593 23.881 24.5153 24.0389 24.5593 24.6454C24.5845 25.0686 24.6034 25.1065 24.8299 25.3213C25.0753 25.5487 27.2399 26.9006 27.3594 26.9006C27.3909 26.9006 27.5923 26.6226 27.7999 26.2815C28.4417 25.2392 28.9326 24.8475 29.5807 24.8665C29.933 24.8728 30.04 24.9107 31.1789 25.4034C32.343 25.9088 33.3435 26.0162 34.1364 25.7256C34.9544 25.4287 34.9984 25.4224 35.4326 25.5677C35.9612 25.7445 36.301 25.7382 36.6848 25.5424C37.0246 25.3718 37.2448 25.0876 37.4022 24.6454C37.5217 24.2979 37.8867 23.6725 38.5788 22.6239C39.2458 21.6132 39.378 21.2784 39.4661 20.3687C39.636 18.5557 39.2773 16.5405 38.6166 15.6435C38.4782 15.454 38.2894 15.3656 37.8993 15.315C37.7545 15.2961 37.2574 15.1508 36.7918 14.9928C36.3261 14.8349 35.9297 14.7086 35.9108 14.7086C35.892 14.7086 35.3319 15.1255 34.6649 15.6372Z" fill="white"/>
    <path d="M39.1891 15.2771C38.906 15.4982 38.95 15.7698 39.4723 17.0143C39.7051 17.5702 39.7932 18.3535 39.7429 19.5096C39.6925 20.6151 39.6107 21.1899 39.4471 21.5753C39.3842 21.7206 39.0193 22.308 38.6417 22.8766C37.8048 24.1274 37.6664 24.4116 37.6664 24.8791C37.6727 25.2771 37.8048 25.5677 38.4278 26.5721C38.648 26.9258 38.9249 27.4249 39.0444 27.6713C39.5352 28.6946 39.4786 29.0989 38.7801 29.4843C38.5033 29.6359 38.3837 29.737 38.3837 29.8254C38.3837 29.8949 38.5347 30.1918 38.7235 30.495C38.906 30.7919 39.1262 31.1646 39.208 31.3225C39.3968 31.6763 39.5667 31.7647 40.0764 31.7647C40.8692 31.7647 41.7627 31.3983 42.5745 30.7351C42.845 30.514 43.2289 30.2486 43.4176 30.1539C43.8455 29.9391 46.1486 28.3409 46.6457 27.9113C46.6708 27.886 46.5387 27.5449 46.3499 27.1469C45.9094 26.212 45.8402 25.9088 45.9346 25.3087C46.0919 24.26 46.6016 23.2556 47.0924 23.0219C47.4196 22.8703 47.4511 22.6681 47.4637 20.7288L47.4763 19.0547L46.3436 18.3914C42.2158 15.972 40.7245 15.2455 39.7366 15.1697C39.4157 15.1445 39.3339 15.1571 39.1891 15.2771Z" fill="white"/>
    <path d="M58.1734 15.7636L57.4812 16.3637L52.9759 16.3258L48.4705 16.2816L48.439 17.2165C48.4201 17.7282 48.3824 18.202 48.3572 18.2651C48.332 18.3283 48.2188 18.4167 48.0992 18.4673C47.9419 18.5305 47.879 18.6063 47.8287 18.7958C47.7972 18.9284 47.7406 19.9076 47.7154 20.9689C47.6651 22.6239 47.6399 22.9335 47.5518 23.0724C47.4889 23.1609 47.3882 23.2367 47.319 23.2367C47.2435 23.2367 47.0673 23.3567 46.9225 23.5083C46.589 23.8368 46.2933 24.5191 46.18 25.2139C46.0794 25.833 46.136 26.1426 46.5387 27.0649C46.7023 27.4439 46.8345 27.8355 46.8345 27.9303C46.8345 28.0566 46.8911 28.1451 47.0232 28.2398C47.2498 28.4041 47.514 28.9537 47.7343 29.718C47.9671 30.5329 48.137 30.8172 48.5523 31.0636C48.8858 31.2657 49.0934 31.4931 49.8611 32.4849C50.0625 32.7502 50.3771 33.085 50.5533 33.2303C51.0755 33.6536 51.2203 33.8431 51.2203 34.1211C51.2203 34.5759 51.7677 35.3655 52.0823 35.3655C52.1641 35.3655 52.4032 35.296 52.6172 35.2076C52.8311 35.1192 53.0828 35.0497 53.1709 35.0497C53.2779 35.0497 53.5799 35.2076 53.9512 35.454C54.7629 36.0035 54.9894 36.0288 56.5248 35.7698C57.3806 35.6245 57.8147 35.4666 58.079 35.2076C58.2804 35.0118 58.3748 34.9675 58.7208 34.9233C59.2494 34.8602 59.4004 34.778 59.4004 34.5569C59.4004 34.3548 59.3186 34.2284 58.7838 33.5967C58.5572 33.3377 58.3118 32.9777 58.2363 32.8008C58.0727 32.447 57.8777 32.2765 57.2044 31.9164C56.4052 31.4931 56.3863 31.2594 57.1226 30.8235C57.777 30.4319 57.8462 30.3308 57.8336 29.8507C57.8147 29.1305 58.23 28.1198 59.0858 26.7743C59.6144 25.9467 59.7591 25.6625 59.8409 25.2771C59.8786 25.1066 59.9856 24.8981 60.08 24.797L60.2499 24.6201L60.1303 24.3232C59.7087 23.2683 60.1681 22.0428 61.3322 21.0889C61.6028 20.8678 61.8356 20.6783 61.8482 20.6719C61.8608 20.6593 61.6846 20.4445 61.4643 20.1918C61.2378 19.9392 60.9609 19.5917 60.8477 19.4212C60.5897 19.0358 60.3443 18.3599 60.3443 18.0188C60.3443 17.5955 60.231 17.1028 60.036 16.6985C59.8346 16.2689 59.0355 15.1508 58.9348 15.1571C58.897 15.1571 58.5572 15.4288 58.1734 15.7636Z" fill="white"/>
    <path d="M61.7601 21.1015C60.9924 21.3163 60.2059 22.567 60.1933 23.5967C60.187 23.9821 60.2059 24.0768 60.3191 24.1842C60.4638 24.3295 60.5268 24.3358 61.6028 24.279C63.1822 24.1842 63.7296 24.3864 64.8811 25.4603C65.7809 26.3068 66.0515 26.5152 66.2466 26.5215C66.4165 26.5215 66.4165 26.5026 66.278 26.2815C66.0326 25.8962 65.5418 25.3845 64.5225 24.4685C63.0312 23.1166 62.7291 22.7439 62.5152 21.9669C62.3012 21.2025 62.1188 20.9941 61.7601 21.1015Z" fill="white"/>
    <path d="M0 21.4173C0 21.55 0.18248 21.7837 0.289451 21.7837C0.358668 21.7837 0.377545 21.7269 0.36496 21.5753C0.352376 21.4047 0.314621 21.3668 0.176188 21.3542C0.0629242 21.3415 0 21.3605 0 21.4173Z" fill="white"/>
    <path d="M8.90372 22.2196C8.63314 22.3459 8.20526 22.7692 7.87805 23.2303C7.73333 23.4325 7.6767 23.5841 7.6767 23.7546C7.6767 24.02 7.89064 24.4937 8.14863 24.8033L8.31852 25.0054L8.99181 24.9928C9.47004 24.9865 9.75949 25.0181 9.97972 25.0939C10.3761 25.2202 10.609 25.4224 10.5083 25.5424C10.4202 25.6498 10.1748 25.694 8.98552 25.7951C7.80884 25.8898 7.70816 25.934 7.87805 26.2878C7.93469 26.4078 8.03536 26.5215 8.10458 26.5342C8.1738 26.5531 8.47583 26.5026 8.78416 26.4205C9.90421 26.1236 10.0867 26.1172 11.7101 26.3573C12.3771 26.4584 12.8113 26.4141 12.9372 26.2373C13.0378 26.0983 12.9686 25.9593 12.2576 24.8033C10.8355 22.5039 9.87904 21.7648 8.90372 22.2196Z" fill="white"/>
    <path d="M2.40366 23.2935C2.35332 23.3187 2.32815 23.4135 2.34073 23.4956C2.35332 23.6156 2.39736 23.6472 2.54838 23.6472C2.75603 23.6472 2.83154 23.4893 2.70569 23.3314C2.6176 23.224 2.52321 23.2113 2.40366 23.2935Z" fill="white"/>
    <path d="M23.9426 24.001C23.8419 24.0326 23.5965 24.1905 23.4015 24.3611C22.9799 24.7212 22.6086 24.8917 21.8661 25.0686C21.1236 25.2392 20.6894 25.4666 20.3245 25.8709C20.035 26.1867 18.7954 27.9808 18.7073 28.2019C18.6507 28.3535 19.3303 29.0105 19.7204 29.181C19.9532 29.2821 20.1734 29.32 20.5321 29.3263C21.1614 29.3326 21.262 29.2379 21.2746 28.6441C21.2809 28.2903 21.2872 28.2777 21.3375 28.4798C21.369 28.5999 21.413 29.0547 21.4319 29.4906C21.4634 30.1223 21.4445 30.4824 21.3312 31.2909C21.2306 32.0111 21.1991 32.4343 21.2306 32.7755C21.3124 33.7104 21.6207 34.6706 21.8409 34.6706C22.187 34.6706 24.8235 33.6788 24.9557 33.5019C25.0501 33.3756 24.9746 32.9776 24.7732 32.5228C24.5656 32.0427 24.4775 31.6194 24.4082 30.6719C24.3076 29.2821 24.0873 28.5177 23.735 28.3535C23.628 28.303 23.1686 28.2651 22.4765 28.2398C21.8787 28.2272 21.4005 28.1956 21.4193 28.1829C21.4319 28.1703 22.1178 28.1134 22.9421 28.0692C24.8487 27.9555 25.4528 27.8165 25.9813 27.368C26.2016 27.1848 26.3652 26.9069 26.3652 26.7237C26.3652 26.5594 26.1638 26.3952 25.5975 26.0857C25.0249 25.7698 24.5341 25.3466 24.3831 25.0307C24.3013 24.8538 24.2824 24.7148 24.3139 24.4495C24.339 24.2284 24.3264 24.0768 24.2824 24.02C24.2006 23.9189 24.2069 23.9189 23.9426 24.001Z" fill="white"/>
    <path d="M61.0805 24.5632C60.7722 24.6453 60.401 24.8349 60.2751 24.9801C60.2185 25.0496 60.1241 25.2518 60.0612 25.435C60.0045 25.6182 59.7717 26.073 59.5389 26.4457C58.3811 28.3408 58.142 28.8904 58.0979 29.7432C58.0791 30.0717 58.035 30.3813 57.9973 30.4318C57.9532 30.476 57.6764 30.6845 57.3743 30.8866C57.0786 31.0888 56.8143 31.2846 56.7954 31.3162C56.7451 31.3983 56.959 31.5562 57.5694 31.8847C58.1042 32.1753 58.4566 32.5038 58.4566 32.706C58.4566 33.0155 59.6459 34.3105 60.5772 35.0117C61.3197 35.5676 62.1314 36.0098 62.4838 36.0477C62.704 36.0667 62.9179 36.0161 63.4591 35.814C64.2771 35.5044 64.7868 35.4349 65.1832 35.5802C65.5922 35.7318 65.6929 35.7129 66.4039 35.3465C66.7941 35.1444 67.2786 34.9485 67.6184 34.8664C68.298 34.6958 68.7951 34.4368 69.1411 34.0831C69.2796 33.9378 69.72 33.4324 70.1228 32.965C70.8401 32.1248 71.1736 31.6257 71.0855 31.5373C71.0603 31.512 70.5821 31.3667 70.0158 31.2214C67.8071 30.6466 66.8381 30.078 66.3221 29.0484C66.1648 28.7388 65.9131 28.3787 65.63 28.0755C65.3909 27.8102 65.1895 27.5449 65.1895 27.4754C65.1895 27.4122 65.2902 27.2354 65.4097 27.0901C65.7621 26.6668 65.7306 26.5531 65.0574 25.8582C64.0065 24.7654 63.5598 24.5569 62.2006 24.5253C61.7161 24.5127 61.2127 24.5316 61.0805 24.5632Z" fill="white"/>
    <path d="M29.0206 25.2329C28.6115 25.4351 28.2277 25.8962 27.8753 26.6164C27.5859 27.1975 27.5733 27.3239 27.7558 27.7029C27.869 27.9429 27.8753 28.0061 27.8124 28.3346C27.7747 28.5368 27.6425 29.0232 27.523 29.4085C26.9629 31.2215 26.8811 33.0282 27.3656 32.8703C27.5293 32.8197 28.1774 33.0093 28.6871 33.2683C29.3478 33.5967 29.6561 33.9252 29.7945 34.4432C29.8574 34.6707 29.9581 34.8981 30.0148 34.9549C30.1658 35.0939 30.8013 35.1381 31.6067 35.0623C32.4248 34.9928 32.5254 34.9233 32.7142 34.2979C32.8715 33.7736 33.2302 33.2051 33.6203 32.8576C34.0608 32.4723 34.2936 32.3775 34.6963 32.4281C35.25 32.4976 35.6842 32.3396 36.1184 31.9038C36.4834 31.5311 36.7476 31.0067 36.7476 30.6403C36.7476 30.1287 37.1189 29.2316 37.9054 27.8356C38.1697 27.3618 38.3837 26.9512 38.3837 26.9133C38.3837 26.8185 37.6726 25.7509 37.5153 25.6119C37.3706 25.4856 37.3706 25.4856 36.6533 25.7888C36.1939 25.9846 35.9108 25.991 35.4766 25.8204C35.0739 25.6625 34.7907 25.6877 34.2621 25.9341C33.9223 26.0857 33.8154 26.1047 33.2239 26.1047C32.4185 26.1047 31.9277 25.9783 30.8013 25.473C29.8008 25.0308 29.4925 24.9865 29.0206 25.2329Z" fill="white"/>
    <path d="M8.63321 25.315C8.41927 25.3781 8.21791 25.4476 8.19904 25.4729C8.18016 25.4919 8.60175 25.5108 9.1429 25.5108C9.69034 25.5108 10.1308 25.4919 10.1308 25.4603C10.1308 25.2265 9.23099 25.1381 8.63321 25.315Z" fill="white"/>
    <path d="M9.63373 26.4268C9.23101 26.5152 8.18018 26.9069 8.18018 26.9637C8.18018 26.9827 8.40041 27.109 8.66469 27.2417C9.66519 27.7344 10.2189 27.5891 10.6657 26.7174C10.7727 26.5089 10.7727 26.4963 10.6594 26.4141C10.521 26.3131 10.156 26.3131 9.63373 26.4268Z" fill="white"/>
    <path d="M11.0998 26.7742C10.8355 26.9069 9.69031 27.9365 9.69031 28.0503C9.69031 28.0945 10.7663 29.5474 11.1816 30.0528C11.1942 30.0717 11.4333 29.8506 11.7228 29.5664C12.2828 29.0231 12.4904 28.9157 12.761 29.0547C13.0568 29.2063 13.7426 29.9454 13.8685 30.2486C14.0824 30.7729 14.1202 30.8235 14.4096 31.0382C14.6739 31.2341 14.8438 31.4741 14.9382 31.7773C14.9634 31.8595 15.0389 31.8911 15.1962 31.8911C15.473 31.8911 15.6996 31.7773 15.9513 31.512C16.1212 31.3351 16.14 31.2657 16.1589 30.8171C16.1967 30.0654 16.0142 28.8083 15.731 27.905C15.58 27.4122 15.3724 26.9195 15.2906 26.869C15.2591 26.85 14.9634 26.9069 14.6299 26.9953C13.8622 27.1911 13.6357 27.1911 13.277 26.989C12.6792 26.6479 11.578 26.5342 11.0998 26.7742Z" fill="white"/>
    <path d="M26.2645 27.3428C25.9625 27.6207 25.6101 27.9113 25.478 27.9871C25.1822 28.1514 25.1697 28.2524 25.3962 28.8778C25.6793 29.6612 25.7926 30.2486 25.8618 31.2278C25.9373 32.3206 26.0443 32.8639 26.2268 33.0471C26.34 33.1608 26.3715 33.1671 26.4659 33.085C26.6547 32.9271 26.7428 32.6049 26.8057 31.8279C26.8749 30.9498 27.0133 30.2929 27.3657 29.1179C27.5104 28.6504 27.6237 28.1893 27.6237 28.0882C27.6237 27.886 27.5104 27.6397 27.2336 27.2354C26.9126 26.7616 26.8812 26.7679 26.2645 27.3428Z" fill="white"/>
    <path d="M65.8062 26.9385C65.4349 27.1343 65.3972 27.5386 65.7181 27.8734C65.9698 28.145 66.1711 28.164 66.4417 27.9429C66.7689 27.6649 66.8318 27.2291 66.5864 26.9448C66.4669 26.8121 66.0453 26.8058 65.8062 26.9385Z" fill="white"/>
    <path d="M38.5285 27.1659C38.3586 27.3807 37.4777 29.0421 37.2889 29.5032C37.1693 29.7938 37.0435 30.2423 37.0057 30.5013C36.861 31.43 36.3576 32.1691 35.6277 32.5102C35.332 32.6492 35.1809 32.6807 34.7342 32.6807C34.2874 32.6807 34.1616 32.706 33.9665 32.826C33.4946 33.1229 33.0478 33.8368 32.9031 34.538C32.8024 35.0181 32.8653 35.2202 33.2555 35.694C33.6456 36.1678 33.9162 36.6921 33.9162 36.9827C33.9162 37.3175 34.0798 37.4502 34.5769 37.5133C35.2627 37.6081 39.1766 37.766 39.378 37.7092C39.9254 37.5512 40.2463 37.2038 40.3281 36.6921C40.4099 36.1804 40.4414 36.1678 41.5426 36.1236C42.0711 36.1046 42.5431 36.0667 42.5808 36.0414C42.6375 36.0035 42.65 35.8835 42.6186 35.6182C42.5808 35.2392 42.5808 35.2392 42.8262 35.0054C42.9584 34.8791 43.1912 34.7212 43.3359 34.658C43.6694 34.5127 43.8267 34.5443 44.7769 34.9928C45.7082 35.4287 45.8655 35.4413 46.9729 35.1255C48.1307 34.797 48.6153 34.6896 49.3389 34.6075C50.4401 34.4811 50.9623 34.2663 50.8805 33.9568C50.8616 33.8684 50.5156 33.4451 50.1128 33.0219C49.7101 32.5986 49.3011 32.0996 49.2004 31.9227C49.0683 31.689 48.9236 31.5437 48.6656 31.3857C47.9294 30.9309 47.7784 30.7224 47.5141 29.7749C47.3127 29.08 47.0296 28.4862 46.8471 28.4041C46.6268 28.303 46.0668 28.5873 44.9719 29.3706C44.4434 29.7496 43.7638 30.2044 43.4492 30.3876C43.1408 30.5708 42.713 30.8614 42.5053 31.032C41.9893 31.4489 41.3727 31.7332 40.5169 31.948C39.3717 32.2322 39.1389 32.4028 38.7047 33.243C38.5222 33.5967 38.497 33.6978 38.5348 33.9252C38.604 34.3485 39.3969 35.9088 39.7618 36.3447C40.0639 36.6921 40.1708 36.9448 40.0198 36.9448C39.8499 36.9448 38.9564 35.5171 38.5159 34.5506C38.3397 34.1653 38.3083 34.0326 38.3334 33.761C38.3712 33.363 38.6292 32.8008 38.9564 32.4217C39.12 32.2322 39.2018 32.0743 39.2018 31.9543C39.2018 31.7458 38.8557 31.0509 38.3775 30.3055C38.0629 29.8191 38.0566 29.8002 38.1635 29.6801C38.2265 29.6106 38.4215 29.4717 38.604 29.3706C39.2521 29.0042 39.2899 28.5557 38.7676 27.387C38.6166 27.0585 38.6166 27.0585 38.5285 27.1659Z" fill="white"/>
    <path d="M73.8668 27.5323C73.1998 27.8734 71.6896 28.303 69.8333 28.663C69.2859 28.7704 68.7322 28.8589 68.5937 28.8589C68.0652 28.8589 67.2094 28.3977 67.0269 28.0187C66.92 27.8039 66.857 27.8039 66.6305 28.0313C66.3411 28.3282 66.3977 28.821 66.7941 29.3958C67.2535 30.0654 67.9834 30.4381 69.7515 30.9056C71.224 31.291 71.4316 31.4426 71.1799 31.91C71.0289 32.2006 69.8837 33.5714 69.2607 34.2158C68.7573 34.7338 68.4868 34.8917 67.8009 35.0496C67.0143 35.2391 66.4984 35.5045 65.9761 36.0035C65.479 36.4836 65.0952 37.0837 64.8686 37.7344C64.7428 38.1008 64.7176 38.2966 64.7176 38.8715C64.7239 39.4779 64.7554 39.6737 64.963 40.4381C65.0952 40.9182 65.1895 41.3225 65.177 41.3415C65.1266 41.3857 64.7679 40.5392 64.6484 40.097C64.4974 39.5474 64.5037 38.3977 64.6484 37.7976C64.7113 37.5512 64.9127 37.0648 65.1014 36.711C65.2902 36.3573 65.4412 36.0351 65.4412 36.0035C65.4412 35.9656 65.3531 35.8898 65.2399 35.8329C64.9504 35.6813 64.3401 35.7508 63.522 36.0225C62.6096 36.332 62.4272 36.3257 61.6658 35.9403C61.326 35.7698 60.8226 35.4855 60.552 35.3086C60.2814 35.1381 59.9857 34.9675 59.8976 34.9359C59.4508 34.759 58.0791 35.3402 58.0791 35.7003C58.0791 35.7508 58.1609 35.9719 58.2679 36.193C58.5007 36.711 58.7713 37.646 58.7713 37.9618C58.7713 38.1261 58.6706 38.3977 58.4315 38.8525C58.1231 39.4463 57.7078 40.4571 57.6072 40.8677C57.5694 41.0193 57.6009 41.0446 58.3434 41.392C59.2684 41.8279 61.0177 42.7565 61.4015 43.0218C61.5966 43.1608 61.7161 43.3061 61.8294 43.5651C61.9175 43.7609 62.1566 44.2221 62.3705 44.5758L62.7544 45.2328L63.0124 44.7022C63.3647 43.982 63.736 43.5019 65.3154 41.6826C65.781 41.1393 66.3725 40.4444 66.6242 40.1286C67.115 39.5095 67.9142 38.7641 69.3111 37.627C70.8905 36.3257 71.01 36.1614 72.9166 32.4849C74.5967 29.2505 74.6722 28.9852 74.345 27.4817C74.301 27.3112 74.2947 27.3112 73.8668 27.5323Z" fill="white"/>
    <path d="M24.3705 28.2019C24.3516 28.2524 24.3957 28.8715 24.4712 29.5727C24.6725 31.4363 24.918 32.447 25.2955 33.0534C25.6605 33.6283 25.7737 33.4009 25.7171 32.2133C25.6479 30.8804 25.3836 29.459 25.0753 28.7641C24.8424 28.2335 24.4712 27.9366 24.3705 28.2019Z" fill="white"/>
    <path d="M16.3351 29.2821C16.3666 29.5538 16.3917 30.0844 16.3855 30.4698C16.3855 31.0825 16.3666 31.2089 16.2093 31.5689C15.8884 32.308 15.9198 32.8387 16.3099 33.3251C16.5868 33.6725 16.7378 34.0263 16.7378 34.3548C16.7378 34.797 16.6371 34.8601 16.5868 34.4495C16.5365 34.0326 16.4358 33.7989 16.1086 33.4072C15.7499 32.9713 15.7122 32.8703 15.7625 32.4533L15.8065 32.0869L15.3472 32.0996L14.8879 32.1122L14.6802 31.7332C14.3467 31.1267 13.8433 30.8046 13.7363 31.1141C13.5979 31.5437 13.0064 32.4596 12.9246 32.3838C12.912 32.3649 13.0379 32.0743 13.2078 31.7269C13.7993 30.5203 13.8119 30.375 13.3399 29.8065C13.0379 29.4464 12.7296 29.2379 12.4967 29.2379C12.1318 29.2379 11.3767 30.1981 11.3641 30.6845C11.3578 31.0383 11.6976 31.5058 12.7107 32.5228C13.6168 33.4325 14.8061 34.399 15.3724 34.6896C15.5611 34.7843 15.9576 34.9233 16.2533 34.9991L16.7882 35.1381L18.2228 34.778C19.9029 34.3548 20.5259 34.26 20.9286 34.3611C21.0859 34.4053 21.2306 34.4179 21.2495 34.3927C21.2747 34.3674 21.2558 34.2032 21.218 34.02C20.9223 32.7376 20.916 32.5102 21.1236 31.1646C21.2558 30.3118 21.218 29.7686 21.0167 29.6043C20.8845 29.4969 20.8027 29.4843 20.3874 29.5222C19.9595 29.5538 19.8903 29.5475 19.6323 29.4022C18.8521 28.9663 18.7325 28.9284 18.0278 28.8589C17.6502 28.8273 17.0965 28.7957 16.807 28.7957H16.2848L16.3351 29.2821Z" fill="white"/>
    <path d="M50.4085 34.6517C50.289 34.7022 49.8359 34.7843 49.4017 34.8412C48.6844 34.9296 47.816 35.1255 46.5009 35.4918C45.8906 35.6624 45.6892 35.6371 44.7705 35.2328C44.2231 34.9928 43.921 34.898 43.6316 34.8728C43.254 34.8475 43.2289 34.8538 43.0464 35.037C42.8702 35.2139 42.8513 35.2644 42.8513 35.6435C42.8513 36.1994 42.7695 36.5657 42.4297 37.5765C42.1592 38.3661 42.1403 38.4798 42.1277 39.1242C42.1151 39.9454 42.0962 40.0023 41.3474 41.272C40.7937 42.2006 40.6238 42.5544 40.4036 43.2113C40.2463 43.6914 39.768 44.4053 39.3968 44.7274C39.2584 44.8475 38.9941 45.0307 38.8116 45.1317C38.497 45.3023 38.4403 45.3149 37.723 45.3149C37.0749 45.3149 36.9239 45.3402 36.6596 45.4602C36.282 45.6308 36.3764 45.4855 36.8043 45.2328C37.0686 45.0749 37.1441 45.0622 37.6727 45.0749C38.4466 45.1001 38.8179 44.9612 39.3527 44.4558C39.7806 44.0578 40.1015 43.4956 40.3029 42.807C40.3595 42.6112 40.6427 42.0427 40.9384 41.5436C41.8697 39.9833 41.8697 39.9896 41.8823 39.1747C41.9012 38.404 42.0459 37.8544 42.4927 36.8627L42.7192 36.3762H41.9201C40.9447 36.3762 40.6679 36.4394 40.6112 36.6795C40.5357 36.989 40.3469 37.3048 40.0575 37.5891C39.6548 37.9997 39.4408 38.0376 38.3208 37.9239C37.8237 37.8734 37.3769 37.8544 37.3329 37.886C37.2637 37.9176 37.3769 38.0755 37.7545 38.4988C38.0313 38.8083 38.2767 39.1305 38.3019 39.2063C38.3208 39.3011 38.2893 39.4463 38.2012 39.6043C38.0313 39.9012 38.0565 40.0528 38.3585 40.7287C38.6291 41.3225 38.6291 41.4994 38.346 41.9542C38.0439 42.4407 37.8929 42.5101 37.27 42.4596C36.7036 42.4217 36.4079 42.4912 36.1184 42.7376C35.9548 42.8702 35.9297 42.9397 35.9297 43.205C35.9297 43.4703 35.8982 43.5461 35.7094 43.7609C35.5899 43.8936 35.4892 44.0389 35.4892 44.0768C35.4892 44.1147 35.5962 44.3674 35.7346 44.639C35.8667 44.9043 36.0807 45.4539 36.2128 45.8519C36.5652 46.9511 36.6407 47.1532 37.0245 47.9302L37.3769 48.6504L37.3706 49.3831C37.3643 50.2423 37.4084 50.5013 37.7545 51.5625L38.0125 52.3522L37.572 53.1924C36.647 54.9611 35.8919 57.0521 35.8542 57.9428C35.829 58.4292 35.9045 58.4671 37.1693 58.5114C41.4481 58.663 42.845 58.7893 44.1098 59.1557C44.5314 59.2757 44.9467 59.2505 46.3436 59.023C47.6147 58.8146 48.2251 58.8083 48.7473 58.9851C49.0557 59.0862 49.2885 59.1178 49.817 59.1178C50.7735 59.1115 50.849 59.0736 52.0383 57.867L53.0136 56.8752L54.3853 56.0856C55.1404 55.656 55.9081 55.1633 56.0906 54.999C56.7324 54.4242 56.8708 53.8241 56.7576 52.0553C56.6695 50.6592 56.5877 50.4444 55.9333 49.9075C55.4047 49.4716 54.8006 49.0989 54.4734 48.9978C54.2595 48.9346 54.1651 48.9473 53.712 49.0926C53.0073 49.3263 52.636 49.5663 52.5417 49.8632C52.4221 50.2296 52.4221 52.3395 52.5417 52.5733C52.592 52.6807 52.8437 52.9081 53.0954 53.0913C53.7058 53.5272 53.9323 53.7483 53.8757 53.8556C53.7624 54.0515 53.1583 54.4431 52.957 54.4431C52.7053 54.4431 52.5668 54.3484 51.9124 53.7167C51.2391 53.066 51.0881 52.9713 50.7231 52.9523C50.5595 52.946 50.2386 52.8639 50.0184 52.7691C49.4395 52.5227 48.8417 52.3585 48.5397 52.3585C48.1307 52.3585 48.0174 52.4912 47.9545 53.0534C47.923 53.3124 47.8727 53.603 47.8349 53.6914C47.7342 53.9504 47.4133 54.1778 47.0987 54.2157C46.9414 54.2347 46.6897 54.2663 46.5387 54.2852C45.9975 54.3547 45.8465 54.7274 45.8465 55.9908C45.8528 57.0647 45.9472 57.4185 46.4254 58.1071C46.803 58.6377 46.8659 58.9093 46.5261 58.5177C46.2052 58.145 45.878 57.6396 45.7647 57.3364C45.5319 56.6983 45.5571 55.1254 45.8088 54.5947C45.9912 54.222 46.2492 54.0767 46.8218 54.0262C47.3945 53.9757 47.4951 53.9251 47.6084 53.6409C47.7405 53.3313 47.8035 52.1437 47.6965 52.0742C47.6524 52.049 47.3378 52.0047 46.9917 51.9795C46.4443 51.9416 46.3499 51.9163 46.2241 51.7836C45.9032 51.4488 45.664 50.4191 45.5885 49.0231C45.5508 48.3535 45.5256 48.2208 45.4061 48.0881C45.2487 47.8986 44.544 47.6838 44.0972 47.6838C43.7763 47.6838 43.8015 47.6586 43.3988 48.2776C43.1408 48.6819 42.7695 48.8841 42.2976 48.8841C41.832 48.8841 41.5677 48.7388 41.2782 48.3345C41.058 48.025 40.9447 47.766 40.6364 46.8942L40.5483 46.6415L38.7613 46.5784C37.0497 46.5152 36.9994 46.5089 37.6915 46.4646C38.088 46.4394 38.8997 46.4141 39.4975 46.4015L40.5735 46.3888L41.0391 47.3238C41.2908 47.8355 41.5803 48.3345 41.6746 48.4293C41.832 48.5809 41.9012 48.5998 42.241 48.5935C42.8828 48.5872 43.0716 48.4924 43.2729 48.0755C43.5057 47.608 43.7071 47.4627 44.1287 47.4754C44.4811 47.4817 45.1544 47.6396 45.4753 47.7912C45.727 47.9049 45.8088 48.1387 45.8088 48.7198C45.8151 49.7938 46.0793 51.3225 46.3185 51.6257C46.438 51.7773 46.4695 51.7836 47.0861 51.771C47.6713 51.7584 47.7468 51.771 47.923 51.9037C48.0552 52.0047 48.2691 52.0679 48.5837 52.1121C48.8417 52.15 49.2507 52.2511 49.4898 52.3395C49.7352 52.428 50.0813 52.5543 50.2701 52.6238C50.4589 52.6933 50.6791 52.7312 50.7609 52.7059C50.9937 52.6491 51.2706 52.8323 51.9502 53.5019C52.743 54.2789 52.8311 54.3168 53.2967 54.0831C53.4855 53.982 53.6428 53.862 53.6428 53.8114C53.6428 53.7609 53.4478 53.584 53.2024 53.4198C52.3781 52.8575 52.1641 52.4912 52.1641 51.6636C52.1641 51.1709 52.2774 50.1096 52.3529 49.8759C52.5228 49.3516 53.2212 48.8715 53.926 48.783C54.1148 48.7641 54.291 48.7135 54.3161 48.6756C54.3665 48.5935 54.2469 48.265 53.9323 47.6333C53.5422 46.8563 53.3093 46.2246 53.2338 45.7445C53.1017 44.9485 53.0325 44.6327 52.9129 44.3484C52.743 43.9568 52.743 43.6914 52.9066 43.483C53.0765 43.2682 53.0828 43.1355 52.9192 42.8702C52.7682 42.6175 52.7619 42.428 52.894 42.0427C53.0199 41.6573 53.3471 41.3667 53.6428 41.3667C53.9134 41.3667 53.926 41.2594 53.7372 40.7161C53.5107 40.0781 53.5484 39.857 54.077 38.7957C54.7629 37.4122 54.8699 36.9195 54.5867 36.3699C54.3665 35.9467 53.517 35.3023 53.1709 35.3023C53.0828 35.3023 52.8059 35.3781 52.5542 35.4666C51.9942 35.675 51.8998 35.6435 51.4405 35.1128C51.107 34.7338 50.8616 34.5443 50.7169 34.5506C50.6665 34.5506 50.5281 34.5948 50.4085 34.6517Z" fill="white"/>
    <path d="M55.8327 36.092C55.4803 36.1425 55.1405 36.2057 55.0776 36.2436C54.9832 36.2941 54.9644 36.3952 54.9644 36.9005V37.4943L54.398 38.6188C53.9009 39.6106 53.838 39.7811 53.838 40.078C53.838 40.4697 54.1652 41.1835 54.4421 41.3857L54.6183 41.5183L55.0399 41.3415C55.279 41.2404 55.8075 41.0951 56.2165 41.013C57.2233 40.8108 57.3869 40.7224 57.5317 40.3244C57.5946 40.1475 57.8337 39.6106 58.0665 39.1242C58.4629 38.2966 58.4881 38.2145 58.4818 37.8292C58.4755 37.3806 58.1483 36.2688 57.9784 36.092C57.8589 35.9719 56.7829 35.9719 55.8327 36.092Z" fill="white"/>
    <path d="M32.6765 36.2941C32.5003 36.4141 32.494 36.5405 32.6576 36.5847C32.815 36.6289 32.9911 36.4899 32.966 36.3447C32.9345 36.1867 32.8464 36.1741 32.6765 36.2941Z" fill="white"/>
    <path d="M34.363 37.8354C34.1994 37.8544 34.0484 37.9176 34.0043 37.987C33.8911 38.1387 33.8911 38.404 33.998 38.5493C34.1742 38.7893 35.1055 38.7893 35.2817 38.5493C35.3887 38.404 35.3887 38.1387 35.2817 37.9934C35.181 37.8544 34.7531 37.7786 34.363 37.8354Z" fill="white"/>
    <path d="M35.9674 37.8355C35.6843 37.8797 35.6151 37.9682 35.6151 38.284C35.6151 38.5493 35.5144 38.8462 35.4074 38.9157C35.3634 38.941 35.118 38.9663 34.86 38.9663C34.1741 38.9726 33.9161 39.0358 33.784 39.219C33.6015 39.459 33.3435 40.5708 33.3372 41.0951C33.3372 41.7837 33.57 42.2385 34.4195 43.1608C34.7404 43.5146 35.1494 43.8304 35.2816 43.8304C35.3319 43.8304 35.4389 43.761 35.5207 43.6725C35.6465 43.5525 35.678 43.4577 35.678 43.1924C35.678 42.9018 35.7032 42.845 35.8982 42.6555C36.0178 42.5418 36.2821 42.3901 36.4771 42.3143C36.7855 42.2006 36.9176 42.1817 37.3329 42.2196C37.8992 42.2701 38.0817 42.1943 38.2327 41.8406C38.3837 41.4742 38.3712 41.3984 37.9433 40.2802C37.8111 39.9454 37.8111 39.9138 37.9055 39.718C37.9621 39.6043 38.0062 39.4401 38.0062 39.3453C38.0062 39.1116 37.6664 38.6188 37.2951 38.3219C36.7414 37.886 36.4016 37.7597 35.9674 37.8355Z" fill="white"/>
    <path d="M31.1852 39.2126C31.0594 39.3516 31.0971 39.4716 31.267 39.4716C31.4055 39.4716 31.525 39.3516 31.525 39.2063C31.525 39.0547 31.3237 39.061 31.1852 39.2126Z" fill="white"/>
    <path d="M56.3172 41.2151C55.4677 41.3667 55.0398 41.6068 54.7944 42.0806C54.7252 42.2259 54.6119 42.6428 54.549 43.0092C54.4043 43.8683 54.3665 43.9631 53.9638 44.3926C53.5548 44.8222 53.4856 44.9738 53.4856 45.4981C53.4856 46.5341 54.3854 48.2397 55.4803 49.2631C56.1976 49.939 56.8017 50.2738 57.3051 50.2738C57.7141 50.2738 58.2112 50.9056 58.3937 51.6636C58.4755 51.9984 58.5321 52.0995 58.702 52.2132C58.9788 52.4027 59.4256 52.4848 60.1429 52.4848C60.9295 52.4785 61.4644 52.3774 62.6851 52.011C64.2456 51.5436 64.1072 51.7457 62.49 52.2953C61.1875 52.7375 60.6212 52.807 59.4256 52.668C59.1047 52.6301 58.7649 52.6175 58.6705 52.6364C58.4629 52.6933 58.3307 53.0028 58.2867 53.5524C58.2426 54.0515 58.2867 54.1589 58.7901 54.7716C59.6773 55.8582 59.7591 56.8689 59.0292 57.5575C58.6516 57.9112 58.337 57.9933 58.0916 57.8101C57.8651 57.6396 57.7707 57.349 57.7707 56.7805C57.7644 56.1172 57.7141 56.054 56.8331 55.5107L56.3109 55.1885L55.1971 55.8329C54.0456 56.5025 53.5485 56.8499 53.5485 57.0016C53.5485 57.0584 53.6555 57.1026 53.8505 57.1279C54.9328 57.2795 56.2794 58.107 56.6632 58.8714C56.8772 59.2883 56.8709 59.7748 56.6381 60.6971C56.2857 62.0805 55.6753 63.5271 55.2537 63.963L55.0272 64.1967L55.0335 64.9927C55.0524 66.1424 55.3167 68.6692 55.4614 69.0419C55.4866 69.0925 55.4362 69.2315 55.3544 69.3578C55.1782 69.6231 54.8762 69.6737 54.5112 69.4905C53.7876 69.1177 53.7876 68.4481 54.5175 68.0249C55.0838 67.7027 55.0901 67.6838 54.9391 66.6541C54.8699 66.174 54.7944 65.5107 54.7755 65.1822C54.7503 64.8537 54.7063 64.5379 54.6748 64.481C54.6056 64.3483 54.3728 64.2599 53.9009 64.1715C53.2716 64.0641 52.8563 64.0893 52.5039 64.2662C52.0446 64.4936 50.9245 65.4728 50.6414 65.8834C50.4652 66.1424 50.2953 66.3003 49.9933 66.4772C49.5717 66.7299 49.3514 66.9573 49.213 67.3174C49.0997 67.589 48.7599 67.8796 48.4831 67.9364C48.1936 67.987 47.9105 67.9301 47.3882 67.709C46.6646 67.3995 46.3751 67.469 46.287 67.9807C46.2304 68.3028 45.8277 68.7324 45.3998 68.9409C45.016 69.1241 44.4874 69.1556 44.3678 69.0104C44.3238 68.9598 44.2672 68.5871 44.2357 68.1828C44.1728 67.3805 44.0532 67.0457 43.8833 67.21C43.7575 67.3426 43.6694 68.2965 43.6694 69.5915V70.7476L43.059 71.0381C42.2095 71.4361 42.0711 71.4424 41.3664 71.1266C40.7686 70.8613 40.3596 70.7918 40.2966 70.956C40.2526 71.0634 40.3784 71.3098 40.7371 71.853C40.8881 72.0741 41.0454 72.3837 41.0832 72.529C41.1209 72.6806 41.3286 73.0975 41.5488 73.4639C41.7691 73.824 41.9704 74.1777 41.9956 74.2472C42.1089 74.5252 42.1403 74.8789 42.09 75.3717C42.0585 75.6875 42.0648 75.9781 42.1026 76.1234C42.1781 76.4203 42.9961 77.2858 43.2604 77.3489C43.3736 77.3805 43.6631 77.3426 44.0469 77.2542C46.0983 76.7741 46.5702 76.7235 47.319 76.9067C48.0174 77.0773 48.3572 77.0457 49.0305 76.7488C49.3577 76.6035 49.8674 76.3003 50.1946 76.0602C51.7489 74.9105 53.7876 72.8259 54.549 71.6193C54.6937 71.3793 55.0587 70.956 55.3796 70.6528C56.0214 70.0464 55.9962 70.1537 55.7949 69.2694C55.6627 68.6755 55.7445 68.2144 56.0592 67.7596C56.2542 67.4816 56.3864 67.3805 56.9527 67.0773C58.4125 66.3003 58.8152 65.7823 58.7586 64.7526C58.7334 64.3357 58.6831 64.1588 58.4314 63.5966C58.2678 63.2365 58.0916 62.8196 58.035 62.668C57.9469 62.4153 57.9469 62.39 58.0979 62.131C58.186 61.9857 58.4629 61.6257 58.7083 61.3288C59.52 60.3686 59.9038 59.8632 60.0234 59.6295C60.1744 59.3389 60.4764 59.1241 61.5399 58.5492C62.5529 58.006 62.8739 57.7786 63.3017 57.3048C63.7107 56.8563 64.1953 55.8771 64.233 55.4223C64.2456 55.2391 64.2016 54.7527 64.1198 54.3105C64.0254 53.7672 63.9813 53.2871 63.9813 52.7501C63.9876 51.8405 63.9247 51.6004 63.3647 50.2738C62.7354 48.783 62.6977 48.6251 62.6159 47.0521C62.5341 45.5739 62.4711 45.277 62.0936 44.5632C61.9237 44.2473 61.716 43.8367 61.628 43.6535C61.521 43.4387 61.37 43.2429 61.2001 43.1229C60.8288 42.8513 58.1923 41.5499 57.6763 41.3794C57.2421 41.2341 56.6192 41.1583 56.3172 41.2151ZM52.0383 71.2592C52.1516 71.3414 52.3026 71.4803 52.3718 71.5751C52.4851 71.7267 52.4914 71.7772 52.4284 71.992C52.3403 72.2763 51.9439 72.7564 51.6356 72.9459C51.2014 73.2175 50.7106 73.0343 50.3142 72.4532L50.1254 72.1879L50.245 71.9604C50.3834 71.7078 50.7861 71.335 51.063 71.2087C51.365 71.076 51.7992 71.1013 52.0383 71.2592Z" fill="white"/>
    <path d="M51.1259 71.455C50.6602 71.6888 50.3896 71.9415 50.3896 72.1562C50.3896 72.3773 50.7169 72.7311 51.0126 72.8322C51.2014 72.8953 51.2706 72.8827 51.5223 72.75C51.8432 72.5858 52.1389 72.2131 52.2019 71.9036C52.227 71.7519 52.2019 71.6698 52.0886 71.5372C51.881 71.2908 51.5286 71.2592 51.1259 71.455Z" fill="white"/>
    <path d="M53.58 41.6131C53.2465 41.7647 53.1018 41.9416 53.0451 42.2575C52.9759 42.6365 53.0451 42.845 53.2528 42.8703C53.6303 42.9145 54.6182 42.2764 54.6182 41.9922C54.6182 41.7963 54.5427 41.6826 54.3602 41.5879C54.1274 41.4615 53.8883 41.4678 53.58 41.6131Z" fill="white"/>
    <path d="M53.8758 42.927C53.7625 42.9839 53.5297 43.1608 53.3598 43.3187C53.0703 43.5967 53.0452 43.6346 53.0452 43.9188C53.0452 44.241 53.1899 44.5884 53.322 44.5884C53.3661 44.5884 53.5549 44.481 53.7373 44.3484C54.0394 44.1399 54.0897 44.0704 54.1967 43.7356C54.3288 43.2934 54.3225 42.8575 54.1778 42.8386C54.1275 42.826 53.989 42.8702 53.8758 42.927Z" fill="white"/>
    <path d="M79.4229 45.7382C79.3096 45.8519 79.3348 46.0288 79.4669 46.1046C79.5362 46.1362 79.6054 46.1678 79.6243 46.1678C79.6746 46.1678 79.8508 45.9719 79.8508 45.9151C79.8508 45.8329 79.662 45.6624 79.5739 45.6624C79.5362 45.6624 79.4669 45.694 79.4229 45.7382Z" fill="white"/>
    <path d="M57.1477 50.5076C57.0408 50.5518 56.9086 50.8234 56.8583 51.1014C56.8331 51.253 56.8646 51.4678 56.9527 51.7647C57.0722 52.1437 57.0848 52.2953 57.0534 52.8954C57.0093 53.6851 56.8709 54.4874 56.7261 54.7716C56.6066 55.0117 56.6381 55.0559 57.3302 55.5865C57.8965 56.0161 58.0161 56.2309 58.0161 56.7931C58.0161 57.5638 58.3307 57.8481 58.8278 57.5196C59.1865 57.2795 59.2997 56.9889 59.2557 56.4014C59.2179 55.795 59.0292 55.3844 58.488 54.6958C58.2489 54.3989 58.0664 54.0957 58.0413 53.9757C58.0224 53.8556 58.0538 53.4577 58.1168 53.0913C58.2049 52.5164 58.2112 52.3395 58.1482 51.8847C58.0035 50.8424 57.6197 50.3181 57.1477 50.5076Z" fill="white"/>
    <path d="M67.5555 53.8683C67.5177 53.9315 67.7506 54.2536 67.8324 54.2536C67.9142 54.2536 67.9456 54.0262 67.8827 53.9125C67.8198 53.8051 67.6121 53.7735 67.5555 53.8683Z" fill="white"/>
    <path d="M52.2083 57.9175C51.0127 59.2378 50.7925 59.3705 49.8297 59.3705C49.5214 59.3705 49.2697 59.3957 49.2697 59.421C49.2697 59.5473 50.1569 60.9308 50.7233 61.6888C51.4972 62.7248 52.2146 63.4703 52.6173 63.6535C53.02 63.843 53.9827 64.0009 54.5176 63.9693C54.9329 63.944 54.9581 63.9314 55.1657 63.6977C55.5999 63.1986 56.1536 61.8152 56.4431 60.5075C56.8206 58.8146 56.3864 58.1576 54.4924 57.5448C54.1652 57.4438 53.7185 57.3111 53.5045 57.2542C53.2906 57.2037 53.0766 57.1405 53.0263 57.1279C52.9822 57.1089 52.6487 57.4248 52.2083 57.9175Z" fill="white"/>
    <path d="M36.3827 58.7703C36.0996 58.8967 36.0304 59.1052 36.1562 59.4842C36.2129 59.6484 36.5464 60.3623 36.905 61.0761C38.1509 63.584 38.6795 65.277 39.013 67.9049C39.1577 69.0356 39.2773 69.5726 39.4849 70.0085C39.7366 70.5391 39.8688 70.6275 40.4162 70.6402C40.8315 70.6528 40.951 70.6844 41.4356 70.9244C42.0585 71.2403 42.1781 71.2403 42.7633 70.9497C43.3988 70.6402 43.3736 70.7412 43.4303 68.2902C43.4932 65.378 43.5247 65.1759 44.1413 63.6345C44.4874 62.7564 44.6132 62.0236 44.6132 60.8297V59.819L44.8209 59.7874C45.1355 59.7305 46.3248 59.6295 47.1302 59.5852C47.9671 59.541 48.2566 59.4779 48.4642 59.3073C48.5901 59.1999 48.5963 59.1746 48.5145 59.1178C48.3384 59.0041 47.4637 59.0546 46.3562 59.2441C45.7522 59.3452 45.0915 59.4336 44.8838 59.4336C44.6825 59.4336 44.1098 59.3452 43.6065 59.2378C42.0019 58.903 41.6747 58.8651 40.3659 58.9093C39.3213 58.9409 39.0759 58.9283 38.4026 58.8082C37.5217 58.6566 36.6848 58.6377 36.3827 58.7703Z" fill="white"/>
    <path d="M48.4894 59.5347C47.9986 59.8063 47.621 59.8821 46.9981 59.8379C46.5513 59.8063 46.1863 59.8253 45.6263 59.9074L44.8649 60.0211V60.8802C44.8649 62.131 44.7454 62.7311 44.2357 64.0198C43.8393 65.0116 43.7323 65.4412 43.7323 66.0287C43.7323 66.5404 43.8078 66.7615 44.0469 66.9826C44.3175 67.2289 44.4433 67.5827 44.4874 68.2333C44.5063 68.5745 44.5629 68.884 44.6007 68.9219C44.6573 68.9788 44.7391 68.9724 44.9404 68.9156C45.5949 68.7198 46.0605 68.3281 46.0605 67.968C46.0605 67.7785 46.2241 67.4753 46.3688 67.3932C46.6016 67.2731 47.0358 67.3237 47.514 67.5258C48.0552 67.7596 48.4453 67.7848 48.6844 67.6079C48.7725 67.5385 48.9676 67.2731 49.1123 67.0141C49.3074 66.6667 49.4395 66.5025 49.622 66.4014C49.8863 66.2561 51.0441 65.2327 51.8999 64.4115L52.4158 63.8998L51.774 63.2302C51.0378 62.4658 50.245 61.4361 49.578 60.3812C49.3326 59.9832 49.0809 59.6042 49.0305 59.541C48.9173 59.4083 48.7285 59.4083 48.4894 59.5347Z" fill="white"/>
    <path d="M80.2033 61.8657C80.0648 61.9731 80.1089 62.15 80.2788 62.15C80.4235 62.15 80.5431 62.03 80.5431 61.8847C80.5431 61.7457 80.3732 61.7394 80.2033 61.8657Z" fill="white"/>
    <path d="M78.5106 62.6617C78.2778 62.7944 78.4602 63.1481 78.7182 63.066C78.8 63.0407 78.8441 62.9712 78.8441 62.8765C78.8441 62.6933 78.6679 62.5796 78.5106 62.6617Z" fill="white"/>
    <path d="M54.5239 68.1513C54.4484 68.1765 54.3603 68.2397 54.3162 68.2966C54.1967 68.4355 54.203 68.8146 54.3288 69.0041C54.4735 69.2252 54.8007 69.421 54.9958 69.402C55.1342 69.3831 55.1531 69.3515 55.172 69.1051C55.1972 68.7703 55.0399 68.3155 54.8511 68.1829C54.7001 68.0755 54.7001 68.0755 54.5239 68.1513Z" fill="white"/>
    <path d="M99.9556 35.4062C99.7827 37.7953 98.8983 39.676 97.3022 41.0485C95.7162 42.4209 93.622 43.1072 91.0194 43.1072C88.1728 43.1072 85.9311 42.1515 84.2943 40.2403C82.6677 38.3188 81.8544 35.6858 81.8544 32.341V30.9838C81.8544 28.8489 82.2306 26.9681 82.9829 25.3415C83.7352 23.7149 84.8077 22.4695 86.2005 21.6054C87.6035 20.7311 89.2301 20.2939 91.0804 20.2939C93.6423 20.2939 95.706 20.9802 97.2717 22.3526C98.8373 23.7251 99.7421 25.6516 99.9861 28.1322H95.4112C95.2994 26.6987 94.8978 25.6618 94.2065 25.0213C93.5254 24.3706 92.4833 24.0453 91.0804 24.0453C89.5554 24.0453 88.4117 24.5943 87.6492 25.6923C86.8969 26.7801 86.5106 28.4727 86.4903 30.7703V32.4478C86.4903 34.847 86.8512 36.6007 87.573 37.7089C88.305 38.817 89.4538 39.371 91.0194 39.371C92.4325 39.371 93.4847 39.0508 94.176 38.4103C94.8775 37.7597 95.2791 36.7583 95.3807 35.4062H99.9556ZM106.97 28.1017C108.139 26.6987 109.609 25.9972 111.377 25.9972C114.956 25.9972 116.771 28.0763 116.822 32.2343V42.8022H112.414V32.3563C112.414 31.4108 112.211 30.7144 111.804 30.2671C111.398 29.8096 110.722 29.5809 109.776 29.5809C108.485 29.5809 107.55 30.079 106.97 31.0753V42.8022H102.563V19.379H106.97V28.1017ZM129.707 42.8022C129.504 42.4057 129.357 41.9126 129.265 41.323C128.198 42.5124 126.81 43.1072 125.102 43.1072C123.486 43.1072 122.144 42.6395 121.076 41.7042C120.019 40.7689 119.49 39.5896 119.49 38.1663C119.49 36.4177 120.136 35.0758 121.427 34.1405C122.728 33.2052 124.604 32.7324 127.054 32.7223H129.082V31.7768C129.082 31.0143 128.884 30.4043 128.487 29.9469C128.101 29.4894 127.486 29.2606 126.642 29.2606C125.9 29.2606 125.315 29.4385 124.888 29.7944C124.472 30.1502 124.263 30.6382 124.263 31.2583H119.856C119.856 30.3027 120.151 29.4182 120.741 28.6049C121.33 27.7916 122.164 27.1562 123.242 26.6987C124.319 26.2311 125.529 25.9972 126.871 25.9972C128.904 25.9972 130.516 26.5106 131.705 27.5374C132.905 28.5541 133.504 29.9875 133.504 31.8378V38.9898C133.515 40.5554 133.733 41.7398 134.16 42.5429V42.8022H129.707ZM126.063 39.737C126.713 39.737 127.313 39.5947 127.862 39.3101C128.411 39.0152 128.818 38.6238 129.082 38.1358V35.2994H127.435C125.229 35.2994 124.055 36.0619 123.913 37.5869L123.897 37.8461C123.897 38.3951 124.09 38.8475 124.477 39.2033C124.863 39.5591 125.392 39.737 126.063 39.737ZM151.743 34.7047C151.743 37.2463 151.163 39.2846 150.004 40.8198C148.856 42.3447 147.3 43.1072 145.338 43.1072C143.671 43.1072 142.324 42.5277 141.297 41.3687V49.146H136.89V26.3022H140.977L141.129 27.9187C142.197 26.6377 143.589 25.9972 145.308 25.9972C147.341 25.9972 148.922 26.7496 150.05 28.2542C151.179 29.7588 151.743 31.8327 151.743 34.476V34.7047ZM147.336 34.3845C147.336 32.8493 147.061 31.665 146.512 30.8313C145.973 29.9977 145.186 29.5809 144.149 29.5809C142.766 29.5809 141.815 30.1095 141.297 31.1668V37.9223C141.836 39.0101 142.796 39.554 144.179 39.554C146.284 39.554 147.336 37.8309 147.336 34.3845Z" fill="#FF220C"/>
    <path d="M167.633 37.0074H158.331L156.241 42.8022H153.222L161.701 20.5989H164.263L172.757 42.8022H169.752L167.633 37.0074ZM159.215 34.598H166.764L162.982 24.2131L159.215 34.598ZM176.691 42.8022V28.4829H174.083V26.3022H176.691V24.6095C176.691 22.8406 177.164 21.4732 178.109 20.5074C179.055 19.5416 180.392 19.0587 182.12 19.0587C182.77 19.0587 183.416 19.1451 184.057 19.318L183.904 21.6054C183.426 21.5139 182.918 21.4681 182.379 21.4681C181.464 21.4681 180.758 21.7376 180.259 22.2764C179.761 22.805 179.512 23.5675 179.512 24.5638V26.3022H183.035V28.4829H179.512V42.8022H176.691ZM194.136 28.8336C193.709 28.7625 193.247 28.7269 192.749 28.7269C190.898 28.7269 189.643 29.5148 188.982 31.0906V42.8022H186.161V26.3022H188.906L188.952 28.2084C189.877 26.7343 191.188 25.9972 192.886 25.9972C193.435 25.9972 193.852 26.0684 194.136 26.2107V28.8336ZM199.809 42.8022H196.988V26.3022H199.809V42.8022ZM196.759 21.9256C196.759 21.4681 196.897 21.0818 197.171 20.7667C197.456 20.4515 197.873 20.2939 198.422 20.2939C198.971 20.2939 199.387 20.4515 199.672 20.7667C199.957 21.0818 200.099 21.4681 200.099 21.9256C200.099 22.3831 199.957 22.7644 199.672 23.0693C199.387 23.3743 198.971 23.5268 198.422 23.5268C197.873 23.5268 197.456 23.3743 197.171 23.0693C196.897 22.7644 196.759 22.3831 196.759 21.9256ZM208.944 35.1622L207.175 37.0074V42.8022H204.354V19.379H207.175V33.5457L208.684 31.7311L213.824 26.3022H217.255L210.835 33.195L218.002 42.8022H214.693L208.944 35.1622Z" fill="white"/>
    <path d="M82.2451 61.3337H80.7577L83.0241 54.7688H84.8127L87.0759 61.3337H85.5885L83.944 56.269H83.8928L82.2451 61.3337ZM82.1521 58.7533H85.6654V59.8367H82.1521V58.7533ZM87.866 61.3337V54.7688H92.2127V55.9131H89.254V57.4774H91.9242V58.6218H89.254V61.3337H87.866ZM93.1463 61.3337V54.7688H95.7364C96.2322 54.7688 96.6553 54.8575 97.0058 55.0348C97.3584 55.2101 97.6266 55.459 97.8104 55.7817C97.9963 56.1023 98.0893 56.4795 98.0893 56.9133C98.0893 57.3492 97.9952 57.7243 97.8072 58.0384C97.6191 58.3504 97.3467 58.5898 96.9898 58.7565C96.635 58.9231 96.2055 59.0065 95.7011 59.0065H93.967V57.891H95.4768C95.7418 57.891 95.9619 57.8546 96.1371 57.782C96.3123 57.7093 96.4427 57.6003 96.5282 57.455C96.6158 57.3097 96.6596 57.1291 96.6596 56.9133C96.6596 56.6953 96.6158 56.5115 96.5282 56.3619C96.4427 56.2123 96.3113 56.0991 96.1339 56.0221C95.9587 55.9431 95.7375 55.9035 95.4703 55.9035H94.5343V61.3337H93.1463ZM96.6917 58.3461L98.3233 61.3337H96.791L95.1947 58.3461H96.6917ZM100.458 54.7688V61.3337H99.0702V54.7688H100.458ZM107.393 57.0671H105.989C105.963 56.8855 105.911 56.7241 105.831 56.5831C105.752 56.4399 105.651 56.3181 105.527 56.2177C105.403 56.1172 105.26 56.0403 105.097 55.9869C104.937 55.9334 104.763 55.9067 104.575 55.9067C104.235 55.9067 103.939 55.9911 103.687 56.16C103.435 56.3267 103.239 56.5703 103.1 56.8908C102.961 57.2093 102.892 57.5961 102.892 58.0512C102.892 58.5192 102.961 58.9125 103.1 59.2309C103.241 59.5493 103.438 59.7897 103.69 59.9521C103.942 60.1145 104.234 60.1957 104.565 60.1957C104.751 60.1957 104.923 60.1712 105.081 60.122C105.242 60.0729 105.384 60.0013 105.508 59.9072C105.632 59.8111 105.734 59.6946 105.815 59.5578C105.899 59.4211 105.956 59.2651 105.989 59.0898L107.393 59.0962C107.356 59.3976 107.265 59.6882 107.12 59.9682C106.977 60.246 106.783 60.4949 106.54 60.715C106.298 60.933 106.01 61.1061 105.674 61.2343C105.341 61.3604 104.964 61.4235 104.543 61.4235C103.957 61.4235 103.434 61.291 102.972 61.026C102.513 60.761 102.149 60.3774 101.882 59.8752C101.617 59.373 101.485 58.765 101.485 58.0512C101.485 57.3353 101.619 56.7263 101.889 56.2241C102.158 55.7219 102.523 55.3394 102.985 55.0765C103.447 54.8115 103.966 54.679 104.543 54.679C104.923 54.679 105.276 54.7324 105.601 54.8393C105.928 54.9461 106.217 55.1021 106.469 55.3073C106.722 55.5103 106.927 55.7593 107.085 56.0542C107.245 56.3491 107.348 56.6868 107.393 57.0671ZM109.396 61.3337H107.909L110.175 54.7688H111.964L114.227 61.3337H112.739L111.095 56.269H111.044L109.396 61.3337ZM109.303 58.7533H112.816V59.8367H109.303V58.7533ZM120.508 54.7688V61.3337H119.309L116.453 57.2018H116.405V61.3337H115.017V54.7688H116.235L119.069 58.8975H119.126V54.7688H120.508ZM126.071 61.3337H123.744V54.7688H126.09C126.751 54.7688 127.319 54.9002 127.796 55.1631C128.272 55.4238 128.639 55.7988 128.895 56.2882C129.154 56.7776 129.283 57.3631 129.283 58.0448C129.283 58.7287 129.154 59.3164 128.895 59.8079C128.639 60.2994 128.27 60.6766 127.789 60.9394C127.311 61.2023 126.738 61.3337 126.071 61.3337ZM125.132 60.1445H126.014C126.424 60.1445 126.769 60.0718 127.049 59.9265C127.331 59.779 127.543 59.5514 127.684 59.2437C127.827 58.9338 127.898 58.5342 127.898 58.0448C127.898 57.5597 127.827 57.1633 127.684 56.8556C127.543 56.5478 127.332 56.3213 127.052 56.176C126.772 56.0307 126.427 55.958 126.017 55.958H125.132V60.1445ZM130.311 61.3337V54.7688H134.735V55.9131H131.699V57.4774H134.507V58.6218H131.699V60.1893H134.748V61.3337H130.311ZM139.4 56.6568C139.374 56.3983 139.264 56.1974 139.07 56.0542C138.875 55.911 138.611 55.8394 138.278 55.8394C138.051 55.8394 137.86 55.8715 137.704 55.9356C137.548 55.9976 137.428 56.0841 137.345 56.1952C137.264 56.3064 137.223 56.4324 137.223 56.5735C137.219 56.691 137.244 56.7936 137.297 56.8812C137.353 56.9688 137.428 57.0447 137.525 57.1088C137.621 57.1708 137.732 57.2253 137.858 57.2723C137.984 57.3172 138.119 57.3556 138.262 57.3877L138.852 57.5287C139.138 57.5928 139.401 57.6783 139.64 57.7852C139.88 57.892 140.087 58.0235 140.262 58.1795C140.437 58.3355 140.573 58.5192 140.669 58.7308C140.768 58.9424 140.818 59.1849 140.82 59.4585C140.818 59.8602 140.715 60.2086 140.512 60.5035C140.311 60.7962 140.021 61.0238 139.64 61.1863C139.262 61.3465 138.806 61.4267 138.271 61.4267C137.741 61.4267 137.28 61.3455 136.887 61.183C136.496 61.0206 136.19 60.7802 135.97 60.4618C135.752 60.1413 135.638 59.7448 135.627 59.2725H136.97C136.985 59.4927 137.048 59.6764 137.159 59.8239C137.272 59.9692 137.423 60.0793 137.611 60.1541C137.801 60.2267 138.016 60.2631 138.255 60.2631C138.491 60.2631 138.695 60.2289 138.868 60.1605C139.043 60.0921 139.179 59.997 139.275 59.8752C139.371 59.7534 139.419 59.6134 139.419 59.4553C139.419 59.3078 139.375 59.1839 139.288 59.0834C139.202 58.983 139.076 58.8975 138.909 58.827C138.745 58.7565 138.543 58.6923 138.304 58.6346L137.589 58.4551C137.035 58.3205 136.598 58.11 136.278 57.8236C135.957 57.5373 135.798 57.1516 135.8 56.6664C135.798 56.269 135.904 55.9217 136.117 55.6246C136.333 55.3276 136.629 55.0957 137.005 54.929C137.381 54.7624 137.809 54.679 138.288 54.679C138.775 54.679 139.2 54.7624 139.563 54.929C139.929 55.0957 140.213 55.3276 140.416 55.6246C140.619 55.9217 140.724 56.2658 140.73 56.6568H139.4ZM143.141 54.7688V61.3337H141.753V54.7688H143.141ZM148.637 56.8908C148.592 56.7348 148.529 56.597 148.447 56.4773C148.366 56.3555 148.267 56.2529 148.149 56.1696C148.034 56.0841 147.901 56.0189 147.752 55.9741C147.604 55.9292 147.441 55.9067 147.261 55.9067C146.926 55.9067 146.631 55.9901 146.377 56.1568C146.125 56.3235 145.928 56.566 145.787 56.8844C145.646 57.2007 145.575 57.5875 145.575 58.0448C145.575 58.5022 145.645 58.8911 145.784 59.2116C145.923 59.5322 146.119 59.7769 146.373 59.9457C146.628 60.1124 146.928 60.1957 147.274 60.1957C147.588 60.1957 147.857 60.1402 148.079 60.0291C148.303 59.9158 148.474 59.7566 148.592 59.5514C148.711 59.3463 148.771 59.1037 148.771 58.8238L149.053 58.8654H147.361V57.8204H150.108V58.6475C150.108 59.2245 149.986 59.7203 149.742 60.1348C149.499 60.5473 149.163 60.8657 148.736 61.0901C148.309 61.3123 147.819 61.4235 147.268 61.4235C146.652 61.4235 146.112 61.2878 145.646 61.0164C145.18 60.7428 144.817 60.355 144.556 59.8528C144.297 59.3484 144.168 58.75 144.168 58.0577C144.168 57.5255 144.245 57.0511 144.399 56.6344C144.555 56.2155 144.773 55.8608 145.053 55.5702C145.333 55.2795 145.659 55.0583 146.03 54.9066C146.402 54.7549 146.805 54.679 147.239 54.679C147.611 54.679 147.957 54.7335 148.278 54.8425C148.598 54.9493 148.882 55.1011 149.13 55.2977C149.38 55.4943 149.584 55.7283 149.742 55.9997C149.901 56.269 150.002 56.566 150.047 56.8908H148.637ZM156.642 54.7688V61.3337H155.443L152.587 57.2018H152.539V61.3337H151.151V54.7688H152.369L155.202 58.8975H155.26V54.7688H156.642ZM165.67 57.0671H164.266C164.24 56.8855 164.188 56.7241 164.109 56.5831C164.03 56.4399 163.928 56.3181 163.804 56.2177C163.68 56.1172 163.537 56.0403 163.375 55.9869C163.215 55.9334 163.04 55.9067 162.852 55.9067C162.513 55.9067 162.217 55.9911 161.964 56.16C161.712 56.3267 161.517 56.5703 161.378 56.8908C161.239 57.2093 161.169 57.5961 161.169 58.0512C161.169 58.5192 161.239 58.9125 161.378 59.2309C161.519 59.5493 161.715 59.7897 161.968 59.9521C162.22 60.1145 162.511 60.1957 162.843 60.1957C163.029 60.1957 163.201 60.1712 163.359 60.122C163.519 60.0729 163.661 60.0013 163.785 59.9072C163.909 59.8111 164.012 59.6946 164.093 59.5578C164.176 59.4211 164.234 59.2651 164.266 59.0898L165.67 59.0962C165.634 59.3976 165.543 59.6882 165.398 59.9682C165.254 60.246 165.061 60.4949 164.817 60.715C164.576 60.933 164.287 61.1061 163.952 61.2343C163.618 61.3604 163.241 61.4235 162.82 61.4235C162.235 61.4235 161.711 61.291 161.25 61.026C160.79 60.761 160.427 60.3774 160.16 59.8752C159.895 59.373 159.762 58.765 159.762 58.0512C159.762 57.3353 159.897 56.7263 160.166 56.2241C160.435 55.7219 160.801 55.3394 161.262 55.0765C161.724 54.8115 162.243 54.679 162.82 54.679C163.201 54.679 163.553 54.7324 163.878 54.8393C164.205 54.9461 164.495 55.1021 164.747 55.3073C164.999 55.5103 165.204 55.7593 165.362 56.0542C165.523 56.3491 165.625 56.6868 165.67 57.0671ZM172.698 58.0512C172.698 58.7671 172.562 59.3762 172.291 59.8784C172.022 60.3806 171.654 60.7642 171.188 61.0292C170.725 61.292 170.203 61.4235 169.624 61.4235C169.041 61.4235 168.517 61.291 168.053 61.026C167.59 60.761 167.223 60.3774 166.954 59.8752C166.685 59.373 166.55 58.765 166.55 58.0512C166.55 57.3353 166.685 56.7263 166.954 56.2241C167.223 55.7219 167.59 55.3394 168.053 55.0765C168.517 54.8115 169.041 54.679 169.624 54.679C170.203 54.679 170.725 54.8115 171.188 55.0765C171.654 55.3394 172.022 55.7219 172.291 56.2241C172.562 56.7263 172.698 57.3353 172.698 58.0512ZM171.291 58.0512C171.291 57.5875 171.221 57.1964 171.083 56.878C170.946 56.5596 170.752 56.3181 170.502 56.1536C170.252 55.989 169.96 55.9067 169.624 55.9067C169.289 55.9067 168.996 55.989 168.746 56.1536C168.496 56.3181 168.301 56.5596 168.162 56.878C168.026 57.1964 167.957 57.5875 167.957 58.0512C167.957 58.515 168.026 58.9061 168.162 59.2245C168.301 59.5429 168.496 59.7844 168.746 59.9489C168.996 60.1135 169.289 60.1957 169.624 60.1957C169.96 60.1957 170.252 60.1135 170.502 59.9489C170.752 59.7844 170.946 59.5429 171.083 59.2245C171.221 58.9061 171.291 58.515 171.291 58.0512ZM173.726 54.7688H175.438L177.246 59.1796H177.323L179.131 54.7688H180.843V61.3337H179.496V57.0607H179.442L177.743 61.3017H176.826L175.127 57.0447H175.073V61.3337H173.726V54.7688ZM181.986 54.7688H183.698L185.506 59.1796H185.583L187.391 54.7688H189.102V61.3337H187.756V57.0607H187.702L186.003 61.3017H185.086L183.387 57.0447H183.332V61.3337H181.986V54.7688ZM194.301 54.7688H195.689V59.0321C195.689 59.5108 195.575 59.9297 195.346 60.2887C195.12 60.6477 194.802 60.9277 194.394 61.1286C193.986 61.3273 193.51 61.4267 192.968 61.4267C192.423 61.4267 191.946 61.3273 191.538 61.1286C191.13 60.9277 190.812 60.6477 190.586 60.2887C190.359 59.9297 190.246 59.5108 190.246 59.0321V54.7688H191.634V58.9135C191.634 59.1636 191.689 59.3858 191.798 59.5803C191.909 59.7748 192.065 59.9275 192.266 60.0387C192.466 60.1498 192.7 60.2054 192.968 60.2054C193.237 60.2054 193.471 60.1498 193.67 60.0387C193.87 59.9275 194.025 59.7748 194.134 59.5803C194.245 59.3858 194.301 59.1636 194.301 58.9135V54.7688ZM202.322 54.7688V61.3337H201.123L198.267 57.2018H198.219V61.3337H196.831V54.7688H198.049L200.883 58.8975H200.941V54.7688H202.322ZM204.857 54.7688V61.3337H203.469V54.7688H204.857ZM205.749 55.9131V54.7688H211.141V55.9131H209.131V61.3337H207.759V55.9131H205.749ZM211.644 54.7688H213.198L214.695 57.5961H214.76L216.257 54.7688H217.811L215.417 59.0129V61.3337H214.038V59.0129L211.644 54.7688Z" fill="white"/>
</svg>
